<svg width="76" height="105" viewBox="0 0 76 105" fill="none" xmlns="http://www.w3.org/2000/svg">
<path d="M12.9339 97.008H6.69394L5.34994 100H4.11794L9.23794 88.8H10.4059L15.5259 100H14.2779L12.9339 97.008ZM12.5019 96.048L9.81394 90.032L7.12594 96.048H12.5019ZM20.5486 100.08C19.7166 100.08 18.9699 99.8987 18.3086 99.536C17.6579 99.1733 17.1459 98.6667 16.7726 98.016C16.3992 97.3547 16.2126 96.6133 16.2126 95.792C16.2126 94.9707 16.3992 94.2347 16.7726 93.584C17.1459 92.9333 17.6579 92.4267 18.3086 92.064C18.9699 91.7013 19.7166 91.52 20.5486 91.52C21.2739 91.52 21.9192 91.664 22.4846 91.952C23.0606 92.2293 23.5139 92.64 23.8446 93.184L22.9966 93.76C22.7192 93.344 22.3672 93.0347 21.9406 92.832C21.5139 92.6187 21.0499 92.512 20.5486 92.512C19.9406 92.512 19.3912 92.6507 18.9006 92.928C18.4206 93.1947 18.0419 93.5787 17.7646 94.08C17.4979 94.5813 17.3646 95.152 17.3646 95.792C17.3646 96.4427 17.4979 97.0187 17.7646 97.52C18.0419 98.0107 18.4206 98.3947 18.9006 98.672C19.3912 98.9387 19.9406 99.072 20.5486 99.072C21.0499 99.072 21.5139 98.9707 21.9406 98.768C22.3672 98.5653 22.7192 98.256 22.9966 97.84L23.8446 98.416C23.5139 98.96 23.0606 99.376 22.4846 99.664C21.9086 99.9413 21.2632 100.08 20.5486 100.08ZM29.0202 91.52C30.1189 91.52 30.9615 91.7973 31.5482 92.352C32.1349 92.896 32.4282 93.7067 32.4282 94.784V100H31.3402V98.688C31.0842 99.1253 30.7055 99.4667 30.2042 99.712C29.7135 99.9573 29.1269 100.08 28.4442 100.08C27.5055 100.08 26.7589 99.856 26.2042 99.408C25.6495 98.96 25.3722 98.368 25.3722 97.632C25.3722 96.9173 25.6282 96.3413 26.1402 95.904C26.6629 95.4667 27.4895 95.248 28.6202 95.248H31.2922V94.736C31.2922 94.0107 31.0895 93.4613 30.6842 93.088C30.2789 92.704 29.6869 92.512 28.9082 92.512C28.3749 92.512 27.8629 92.6027 27.3722 92.784C26.8815 92.9547 26.4602 93.1947 26.1082 93.504L25.5962 92.656C26.0229 92.2933 26.5349 92.016 27.1322 91.824C27.7295 91.6213 28.3589 91.52 29.0202 91.52ZM28.6202 99.184C29.2602 99.184 29.8095 99.04 30.2682 98.752C30.7269 98.4533 31.0682 98.0267 31.2922 97.472V96.096H28.6522C27.2122 96.096 26.4922 96.5973 26.4922 97.6C26.4922 98.0907 26.6789 98.48 27.0522 98.768C27.4255 99.0453 27.9482 99.184 28.6202 99.184ZM43.2249 88.128V100H42.1369V98.336C41.7956 98.9013 41.3423 99.3333 40.7769 99.632C40.2223 99.9307 39.5929 100.08 38.8889 100.08C38.0996 100.08 37.3849 99.8987 36.7449 99.536C36.1049 99.1733 35.6036 98.6667 35.2409 98.016C34.8783 97.3653 34.6969 96.624 34.6969 95.792C34.6969 94.96 34.8783 94.2187 35.2409 93.568C35.6036 92.9173 36.1049 92.416 36.7449 92.064C37.3849 91.7013 38.0996 91.52 38.8889 91.52C39.5716 91.52 40.1849 91.664 40.7289 91.952C41.2836 92.2293 41.7369 92.64 42.0889 93.184V88.128H43.2249ZM38.9849 99.072C39.5716 99.072 40.0996 98.9387 40.5689 98.672C41.0489 98.3947 41.4223 98.0053 41.6889 97.504C41.9663 97.0027 42.1049 96.432 42.1049 95.792C42.1049 95.152 41.9663 94.5813 41.6889 94.08C41.4223 93.5787 41.0489 93.1947 40.5689 92.928C40.0996 92.6507 39.5716 92.512 38.9849 92.512C38.3876 92.512 37.8489 92.6507 37.3689 92.928C36.8996 93.1947 36.5263 93.5787 36.2489 94.08C35.9823 94.5813 35.8489 95.152 35.8489 95.792C35.8489 96.432 35.9823 97.0027 36.2489 97.504C36.5263 98.0053 36.8996 98.3947 37.3689 98.672C37.8489 98.9387 38.3876 99.072 38.9849 99.072ZM49.5087 95.776L47.5247 97.6V100H46.3887V88.128H47.5247V96.176L52.5487 91.584H53.9567L50.3567 95.024L54.2927 100H52.9007L49.5087 95.776ZM60.1611 91.52C61.2171 91.52 62.0544 91.8293 62.6731 92.448C63.3024 93.056 63.6171 93.9467 63.6171 95.12V100H62.4811V95.232C62.4811 94.3573 62.2624 93.6907 61.8251 93.232C61.3877 92.7733 60.7637 92.544 59.9531 92.544C59.0464 92.544 58.3264 92.816 57.7931 93.36C57.2704 93.8933 57.0091 94.6347 57.0091 95.584V100H55.8731V91.584H56.9611V93.136C57.2704 92.624 57.6971 92.2293 58.2411 91.952C58.7957 91.664 59.4357 91.52 60.1611 91.52ZM66.7012 91.584H67.8372V100H66.7012V91.584ZM67.2772 89.744C67.0425 89.744 66.8452 89.664 66.6852 89.504C66.5252 89.344 66.4452 89.152 66.4452 88.928C66.4452 88.7147 66.5252 88.528 66.6852 88.368C66.8452 88.208 67.0425 88.128 67.2772 88.128C67.5119 88.128 67.7092 88.208 67.8692 88.368C68.0292 88.5173 68.1092 88.6987 68.1092 88.912C68.1092 89.1467 68.0292 89.344 67.8692 89.504C67.7092 89.664 67.5119 89.744 67.2772 89.744ZM75.4301 99.488C75.2167 99.68 74.9501 99.8293 74.6301 99.936C74.3207 100.032 73.9954 100.08 73.6541 100.08C72.8647 100.08 72.2567 99.8667 71.8301 99.44C71.4034 99.0133 71.1901 98.4107 71.1901 97.632V92.544H69.6861V91.584H71.1901V89.744H72.3261V91.584H74.8861V92.544H72.3261V97.568C72.3261 98.0693 72.4487 98.4533 72.6941 98.72C72.9501 98.976 73.3127 99.104 73.7821 99.104C74.0167 99.104 74.2407 99.0667 74.4541 98.992C74.6781 98.9173 74.8701 98.8107 75.0301 98.672L75.4301 99.488Z" fill="black"/>
<path d="M17.2567 75.9999C21.8658 75.9999 26.1994 74.2044 29.4594 70.9459L44.0276 56.3777C47.2877 53.1176 49.0832 48.784 49.0832 44.1734C49.0832 36.5338 44.1781 29.9013 36.8789 27.6688L35.9543 30.6961C41.9139 32.5201 45.9166 37.9351 45.9166 44.1734C45.9166 47.937 44.4504 51.4757 41.7904 54.1373L27.2222 68.7055C24.5606 71.3671 21.0203 72.8332 17.2567 72.8332C9.48731 72.8332 3.16666 66.5126 3.16666 58.7432C3.16666 54.9796 4.63282 51.4409 7.29282 48.7793L21.861 34.2111C22.3218 33.7503 22.8174 33.3197 23.3335 32.9302L21.4256 30.4016C20.7955 30.8782 20.1875 31.4054 19.6222 31.9707L5.05399 46.5389C1.7955 49.799 0 54.1325 0 58.7432C0 68.2574 7.74248 75.9999 17.2567 75.9999Z" fill="black"/>
<path d="M58.743 9.15527e-05C54.1339 9.15527e-05 49.8004 1.79559 46.5403 5.05408L31.9721 19.6223C28.712 22.8824 26.9165 27.2159 26.9165 31.8266C26.9165 40.0726 32.7827 47.196 40.8656 48.7666L41.4689 45.6586C34.8727 44.3761 30.0847 38.5605 30.0847 31.8266C30.0847 28.063 31.5509 24.5243 34.2109 21.8627L48.7791 7.29449C51.4391 4.63291 54.9794 3.16675 58.743 3.16675C66.5124 3.16675 72.8331 9.4874 72.8331 17.2568C72.8331 21.0204 71.3669 24.5591 68.7069 27.2207L54.1403 41.7889C53.7302 42.1974 53.3011 42.579 52.8594 42.9226L54.8069 45.4179C55.3484 44.9952 55.8772 44.5281 56.3759 44.0293L70.9442 29.4611C74.2042 26.201 75.9997 21.8675 75.9997 17.2568C75.9997 7.74257 68.2572 9.15527e-05 58.743 9.15527e-05Z" fill="black"/>
<path d="M5.42284 24.0001L6.77426 19.9618H12.9317L14.2911 24.0001H17.4577L11.6842 7.62302H8.02174L2.25618 24.0001H5.42284ZM7.57393 17.5788L9.78899 10.9816H9.91694L12.132 17.5788H7.57393Z" fill="black"/>
<path d="M60.1439 69.037H63.1106V64.1591L64.9259 62.016L69.8118 69.037H73.3783L66.989 60.0088L73.3223 52.6599H69.6998L63.3106 60.1848H63.1106V52.6599H60.1439V69.037Z" fill="black"/>
</svg>
